<svg width="388" height="190" viewBox="0 0 388 190" fill="none" xmlns="http://www.w3.org/2000/svg">
<path d="M374.45 188.228C372.969 188.228 372.229 187.49 372.229 186.014V35.4302C372.229 33.9539 372.969 33.2158 374.45 33.2158H385.779C387.26 33.2158 388 33.9539 388 35.4302V186.014C388 187.49 387.26 188.228 385.779 188.228H374.45Z" fill="white"/>
<path d="M265.604 190C254.646 190 245.761 186.383 238.949 179.149C232.137 171.915 228.731 162.467 228.731 150.804V145.711C228.731 144.234 229.471 143.496 230.952 143.496H241.836C243.317 143.496 244.058 144.234 244.058 145.711V150.14C244.058 157.964 246.057 164.312 250.055 169.184C254.054 173.908 259.237 176.27 265.604 176.27C271.824 176.27 277.007 173.982 281.153 169.405C285.3 164.829 287.373 158.776 287.373 151.247C287.373 146.227 286.336 141.946 284.263 138.403C282.338 134.712 279.746 131.538 276.488 128.881C273.379 126.076 268.122 121.868 260.717 116.258C253.313 110.796 247.464 106.146 243.169 102.307C238.875 98.3211 235.321 93.5969 232.507 88.1345C229.842 82.6722 228.509 76.2502 228.509 68.8687C228.509 57.3534 231.841 48.2741 238.505 41.6307C245.168 34.8397 253.831 31.4442 264.494 31.4442C275.748 31.4442 284.707 35.1349 291.371 42.5165C298.183 49.7504 301.589 59.4203 301.589 71.526V77.0622C301.589 78.5385 300.848 79.2766 299.368 79.2766H288.261C286.78 79.2766 286.04 78.5385 286.04 77.0622V71.3046C286.04 63.4801 284.041 57.2058 280.042 52.4816C276.192 47.6098 271.009 45.1739 264.494 45.1739C258.57 45.1739 253.683 47.3145 249.833 51.5958C245.983 55.7295 244.058 61.6347 244.058 69.3115C244.058 73.8881 244.872 77.948 246.501 81.4911C248.278 84.8866 250.87 88.1345 254.276 91.2348C257.682 94.335 262.716 98.3949 269.38 103.414C278.265 109.91 284.855 115.225 289.15 119.358C293.592 123.345 296.998 127.773 299.368 132.645C301.737 137.37 302.922 143.127 302.922 149.918C302.922 162.024 299.442 171.768 292.482 179.149C285.522 186.383 276.562 190 265.604 190Z" fill="white"/>
<path d="M249.011 9.28839C245.382 11.2842 241.998 13.1608 238.6 15.0077C230.535 19.3908 222.462 23.759 214.392 28.1336C214.205 28.2357 214.016 28.3315 213.829 28.4294C212.807 28.9528 212.786 28.9656 212.274 28.023C210.579 24.8952 208.895 21.7611 207.223 18.6206C206.584 17.4163 206.601 17.395 207.848 16.7205C211.255 14.8779 214.668 13.0481 218.074 11.2033C219.291 10.5437 219.291 10.5289 218.659 9.30754C217.558 7.1862 216.435 5.07763 215.345 2.95204C214.984 2.24563 214.661 1.50944 214.523 0.71793C214.432 0.192383 214.595 -0.109753 215.216 0.0370596C216.093 0.245576 216.983 0.398772 217.856 0.620055C228.031 3.19673 238.092 6.20107 248.234 8.90327C248.432 8.95647 248.608 9.08413 249.011 9.28839Z" fill="#77BFA9"/>
<path fill-rule="evenodd" clip-rule="evenodd" d="M152.623 79.7844C167.109 62.0516 185.629 44.7665 208.283 32.3993L201.882 20.7454C180.912 32.1935 163.32 47.4597 148.982 63.5457L142.629 35.2088C142.481 33.8801 141.666 33.2158 140.185 33.2158H126.858C125.525 33.2158 124.71 33.8801 124.414 35.2088L91.095 185.793C90.9469 186.531 91.021 187.121 91.3172 187.564C91.7614 188.007 92.3538 188.228 93.0942 188.228H104.423C105.904 188.228 106.718 187.564 106.866 186.235L110.809 166.741C112.092 157.398 113.553 150.514 115.36 144.591C115.325 144.471 115.307 144.328 115.307 144.161L115.322 144.089L115.413 144.119C115.85 142.821 116.347 141.434 116.906 139.967C117.979 137.018 119.164 134.228 120.487 131.368C122.276 127.386 124.39 123.059 126.831 118.493C126.834 118.486 126.838 118.48 126.841 118.473C130.864 110.949 135.774 102.777 141.581 94.4295L151.736 144.161C151.736 144.273 151.728 144.375 151.712 144.466L154.526 158.184C154.739 158.328 154.846 158.526 154.846 158.776L160.399 186.235C160.695 187.564 161.51 188.228 162.842 188.228H174.393C175.726 188.228 176.392 187.564 176.392 186.235V185.793L152.623 79.7844ZM137.985 76.8157L133.966 57.132C133.818 56.6891 133.67 56.4676 133.521 56.4676C133.373 56.4676 133.225 56.6891 133.077 57.132L125.415 94.6568C129.174 88.8087 133.362 82.812 137.985 76.8157Z" fill="#77BFA9"/>
<path d="M16.4086 95.8576V34.5628C16.4086 33.8623 15.8391 33.2944 15.1365 33.2944H0.0314945V186.934C0.0314945 187.635 0.601047 188.203 1.30363 188.203H15.231C15.9336 188.203 16.5031 187.635 16.5031 186.934V124.35C16.5031 123.72 17.324 123.475 17.6708 124.002L59.6202 187.652C59.8554 188.009 60.255 188.224 60.6833 188.224H75.3514C76.3738 188.224 76.9785 187.083 76.4022 186.241L24.9636 111.101C24.6669 110.668 24.6685 110.097 24.9674 109.666L76.4771 35.2834C77.0597 34.4421 76.4557 33.2944 75.4302 33.2944H60.6747C60.2511 33.2944 59.8553 33.5046 59.619 33.8551L17.5726 96.2114C17.2222 96.7311 16.4086 96.4838 16.4086 95.8576Z" fill="white"/>
</svg>
